<svg xmlns="http://www.w3.org/2000/svg" xmlns:xlink="http://www.w3.org/1999/xlink" version="1.1" data-diagram-type="DESCRIPTION" style="width:2150px;height:684px;background:#FFFFFF;" width="2150px" height="684px" viewBox="0 0 2150 684" zoomAndPan="magnify" preserveAspectRatio="none" contentStyleType="text/css"><?plantuml 1.2026.7beta11?><defs/><g font-family="sans-serif" lengthAdjust="spacing"><g class="title" data-source-line="23"><text x="671.059" y="35.421" fill="#000" font-size="22" textLength="805.912" font-weight="700" font-family="'Segoe UI'">队列模式策略抽象：shared / exchange 分支收敛到 QueueModeStrategy</text></g><!--cluster iface--><g class="cluster" data-qualified-name="iface" id="ent0001" data-source-line="25"><rect x="1015" y="58.609" width="343" height="310.84" fill="#DCE9FB" style="stroke:#7A93BE;stroke-width:1;" rx="5" ry="5"/><text x="1116.92" y="71.748" fill="#1F2933" font-size="12" textLength="139.16" font-weight="700" font-family="'Segoe UI'">QueueModeStrategy</text><text x="1145.015" y="85.717" fill="#1F2933" font-size="12" textLength="82.969" font-weight="700" font-family="'Segoe UI'">(协议无关接口)</text><text x="1126.022" y="99.686" fill="#1F2933" font-size="12" textLength="120.955" font-weight="700" font-family="'Segoe UI'">queue/strategy.ts</text></g><!--cluster shared--><g class="cluster" data-qualified-name="shared" id="ent0005" data-source-line="31"><rect x="12" y="431.449" width="555" height="238.94" fill="#DDF3E4" style="stroke:#7A93BE;stroke-width:1;" rx="5" ry="5"/><text x="214.412" y="444.588" fill="#1F2933" font-size="12" textLength="150.176" font-weight="700" font-family="'Segoe UI'">SharedQueueStrategy</text><text x="218.543" y="458.557" fill="#1F2933" font-size="12" textLength="141.914" font-weight="700" font-family="'Segoe UI'">queue_mode=shared</text><text x="229.022" y="472.526" fill="#1F2933" font-size="12" textLength="120.955" font-weight="700" font-family="'Segoe UI'">queue/strategy.ts</text></g><!--cluster ex--><g class="cluster" data-qualified-name="ex" id="ent0011" data-source-line="39"><rect x="1001" y="431.449" width="675" height="238.94" fill="#DDF3E4" style="stroke:#7A93BE;stroke-width:1;" rx="5" ry="5"/><text x="1254.896" y="444.588" fill="#1F2933" font-size="12" textLength="167.209" font-weight="700" font-family="'Segoe UI'">ExchangeQueueStrategy</text><text x="1258.306" y="458.557" fill="#1F2933" font-size="12" textLength="160.389" font-weight="700" font-family="'Segoe UI'">queue_mode=exchange</text><text x="1278.022" y="472.526" fill="#1F2933" font-size="12" textLength="120.955" font-weight="700" font-family="'Segoe UI'">queue/strategy.ts</text></g><!--cluster biz--><g class="cluster" data-qualified-name="biz" id="ent0017" data-source-line="47"><rect x="633" y="243.519" width="328" height="313.9" fill="#FFF3D6" style="stroke:#7A93BE;stroke-width:1;" rx="5" ry="5"/><text x="779" y="256.658" fill="#1F2933" font-size="12" textLength="36" font-weight="700" font-family="'Segoe UI'">业务流</text><text x="654.354" y="270.627" fill="#1F2933" font-size="12" textLength="285.293" font-weight="700" font-family="'Segoe UI'">main.ts / task-runner.ts / housekeeping.ts</text></g><!--entity m1--><g class="entity" data-qualified-name="iface.m1" id="ent0002" data-source-line="26"><rect x="1229.73" y="126.609" width="84.535" height="61.906" fill="#FFF" style="stroke:#7A93BE;stroke-width:1;" rx="5" ry="5"/><text x="1239.73" y="147.748" fill="#1F2933" font-size="12" textLength="52.102" font-family="'Segoe UI'">initDirs()</text><text x="1239.73" y="161.717" fill="#1F2933" font-size="12" textLength="61.125" font-family="'Segoe UI'">listTasks()</text><text x="1239.73" y="175.686" fill="#1F2933" font-size="12" textLength="64.535" font-family="'Segoe UI'">readTask()</text></g><!--entity m2--><g class="entity" data-qualified-name="iface.m2" id="ent0003" data-source-line="27"><rect x="1038.93" y="126.609" width="156.137" height="61.906" fill="#FFF" style="stroke:#7A93BE;stroke-width:1;" rx="5" ry="5"/><text x="1048.93" y="147.748" fill="#1F2933" font-size="12" textLength="77.15" font-family="'Segoe UI'">writeResult()</text><text x="1048.93" y="161.717" fill="#1F2933" font-size="12" textLength="136.137" font-family="'Segoe UI'">writeCancelledResult()</text><text x="1048.93" y="175.686" fill="#1F2933" font-size="12" textLength="103.482" font-family="'Segoe UI'">checkCancelled()</text></g><!--entity m3--><g class="entity" data-qualified-name="iface.m3" id="ent0004" data-source-line="28"><rect x="1192.08" y="283.549" width="121.836" height="61.906" fill="#FFF" style="stroke:#7A93BE;stroke-width:1;" rx="5" ry="5"/><text x="1202.08" y="304.688" fill="#1F2933" font-size="12" textLength="99.99" font-family="'Segoe UI'">writeHeartbeat()</text><text x="1202.08" y="318.657" fill="#1F2933" font-size="12" textLength="67.447" font-family="'Segoe UI'">gcResults()</text><text x="1202.08" y="332.626" fill="#1F2933" font-size="12" textLength="101.836" font-family="'Segoe UI'">afterConsumed()</text></g><!--entity s1--><g class="entity" data-qualified-name="shared.s1" id="ent0006" data-source-line="32"><rect x="35.66" y="499.449" width="116.68" height="33.969" fill="#FFF" style="stroke:#7A93BE;stroke-width:1;" rx="5" ry="5"/><text x="45.66" y="520.588" fill="#1F2933" font-size="12" textLength="96.68" font-family="'Segoe UI'">领取源: pending/</text></g><!--entity s2--><g class="entity" data-qualified-name="shared.s2" id="ent0007" data-source-line="33"><rect x="187.57" y="499.449" width="156.858" height="33.969" fill="#FFF" style="stroke:#7A93BE;stroke-width:1;" rx="5" ry="5"/><text x="197.57" y="520.588" fill="#1F2933" font-size="12" textLength="136.858" font-family="'Segoe UI'">回写: completed|failed/</text></g><!--entity s3--><g class="entity" data-qualified-name="shared.s3" id="ent0008" data-source-line="34"><rect x="379.92" y="499.449" width="144.166" height="33.969" fill="#FFF" style="stroke:#7A93BE;stroke-width:1;" rx="5" ry="5"/><text x="389.92" y="520.588" fill="#1F2933" font-size="12" textLength="124.166" font-family="'Segoe UI'">取消: cancelled/&lt;id></text></g><!--entity s4--><g class="entity" data-qualified-name="shared.s4" id="ent0009" data-source-line="35"><rect x="36.47" y="612.419" width="155.059" height="33.969" fill="#FFF" style="stroke:#7A93BE;stroke-width:1;" rx="5" ry="5"/><text x="46.47" y="633.558" fill="#1F2933" font-size="12" textLength="135.059" font-family="'Segoe UI'">心跳: 根 heartbeat.json</text></g><!--entity s5--><g class="entity" data-qualified-name="shared.s5" id="ent0010" data-source-line="36"><rect x="226.73" y="612.419" width="150.535" height="33.969" fill="#FFF" style="stroke:#7A93BE;stroke-width:1;" rx="5" ry="5"/><text x="236.73" y="633.558" fill="#1F2933" font-size="12" textLength="130.535" font-family="'Segoe UI'">GC: completed|failed/</text></g><!--entity e1--><g class="entity" data-qualified-name="ex.e1" id="ent0012" data-source-line="40"><rect x="1296.33" y="499.449" width="125.34" height="33.969" fill="#FFF" style="stroke:#7A93BE;stroke-width:1;" rx="5" ry="5"/><text x="1306.33" y="520.588" fill="#1F2933" font-size="12" textLength="105.34" font-family="'Segoe UI'">领取源: outbound/</text></g><!--entity e2--><g class="entity" data-qualified-name="ex.e2" id="ent0013" data-source-line="41"><rect x="1457.05" y="499.449" width="175.901" height="33.969" fill="#FFF" style="stroke:#7A93BE;stroke-width:1;" rx="5" ry="5"/><text x="1467.05" y="520.588" fill="#1F2933" font-size="12" textLength="155.901" font-family="'Segoe UI'">回写: inbound/result_&lt;id></text></g><!--entity e3--><g class="entity" data-qualified-name="ex.e3" id="ent0014" data-source-line="42"><rect x="1024.84" y="499.449" width="236.328" height="33.969" fill="#FFF" style="stroke:#7A93BE;stroke-width:1;" rx="5" ry="5"/><text x="1034.84" y="520.588" fill="#1F2933" font-size="12" textLength="216.328" font-family="'Segoe UI'">取消: outbound/cancel_&lt;id>.marker</text></g><!--entity e4--><g class="entity" data-qualified-name="ex.e4" id="ent0015" data-source-line="43"><rect x="1262.99" y="612.419" width="192.014" height="33.969" fill="#FFF" style="stroke:#7A93BE;stroke-width:1;" rx="5" ry="5"/><text x="1272.99" y="633.558" fill="#1F2933" font-size="12" textLength="172.014" font-family="'Segoe UI'">心跳: inbound/heartbeat.json</text></g><!--entity e5--><g class="entity" data-qualified-name="ex.e5" id="ent0016" data-source-line="44"><rect x="1489.85" y="612.419" width="98.305" height="33.969" fill="#FFF" style="stroke:#7A93BE;stroke-width:1;" rx="5" ry="5"/><text x="1499.85" y="633.558" fill="#1F2933" font-size="12" textLength="78.305" font-family="'Segoe UI'">GC: inbound/</text></g><!--entity b1--><g class="entity" data-qualified-name="biz.b1" id="ent0018" data-source-line="48"><rect x="657" y="297.519" width="92.001" height="33.969" fill="#FFF" style="stroke:#7A93BE;stroke-width:1;" rx="5" ry="5"/><text x="667" y="318.658" fill="#1F2933" font-size="12" textLength="72.001" font-family="'Segoe UI'">主循环领任务</text></g><!--entity b2--><g class="entity" data-qualified-name="biz.b2" id="ent0019" data-source-line="49"><rect x="783.96" y="297.519" width="134.076" height="33.969" fill="#FFF" style="stroke:#7A93BE;stroke-width:1;" rx="5" ry="5"/><text x="793.96" y="318.658" fill="#1F2933" font-size="12" textLength="114.076" font-family="'Segoe UI'">processTask 业务流</text></g><!--entity b3--><g class="entity" data-qualified-name="biz.b3" id="ent0020" data-source-line="50"><rect x="657.42" y="499.449" width="101.164" height="33.969" fill="#FFF" style="stroke:#7A93BE;stroke-width:1;" rx="5" ry="5"/><text x="667.42" y="520.588" fill="#1F2933" font-size="12" textLength="81.164" font-family="'Segoe UI'">心跳 / GC 周期</text></g><g class="entity" data-qualified-name="GMN27" id="ent0028" data-source-line="60"><path d="M1382.42,297.039 L1382.42,331.961 A5,5 0 0 0 1387.42,336.961 L1578.571,336.961 A5,5 0 0 0 1583.571,331.961 L1583.571,302.039 L1573.571,292.039 L1387.42,292.039 A5,5 0 0 0 1382.42,297.039" style="stroke:#E0B400;stroke-width:1;" fill="#FFFBE6"/><path d="M1573.571,292.039 L1573.571,299.539 A2.5,2.5 0 0 0 1576.071,302.039 L1583.571,302.039 L1573.571,292.039" style="stroke:#E0B400;stroke-width:1;" fill="#FFFBE6"/><text x="1388.42" y="306.322" fill="#5C4A00" font-size="10" textLength="180.151" font-family="'Segoe UI'">createQueueStrategy(queue_mode)</text><text x="1388.42" y="317.962" fill="#5C4A00" font-size="10" textLength="80" font-family="'Segoe UI'">返回对应策略实例</text><text x="1388.42" y="329.603" fill="#5C4A00" font-size="10" textLength="174.736" font-family="'Segoe UI'">新增队列模式只需加策略类 + 工厂一行</text></g><g class="entity" data-qualified-name="GMN30" id="ent0031" data-source-line="66"><path d="M1703.83,504.799 L1703.83,528.081 A5,5 0 0 0 1708.83,533.081 L1897.178,533.081 A5,5 0 0 0 1902.178,528.081 L1902.178,509.799 L1892.178,499.799 L1708.83,499.799 A5,5 0 0 0 1703.83,504.799" style="stroke:#E0B400;stroke-width:1;" fill="#FFFBE6"/><path d="M1892.178,499.799 L1892.178,507.299 A2.5,2.5 0 0 0 1894.678,509.799 L1902.178,509.799 L1892.178,499.799" style="stroke:#E0B400;stroke-width:1;" fill="#FFFBE6"/><text x="1709.83" y="514.082" fill="#5C4A00" font-size="10" textLength="107.466" font-family="'Segoe UI'">shared 模式零同步开销</text><text x="1709.83" y="525.722" fill="#5C4A00" font-size="10" textLength="177.348" font-family="'Segoe UI'">MCP 与 Worker 直接读写同一共享目录</text></g><g class="entity" data-qualified-name="GMN33" id="ent0034" data-source-line="71"><path d="M1936.96,498.979 L1936.96,533.901 A5,5 0 0 0 1941.96,538.901 L2130.03,538.901 A5,5 0 0 0 2135.03,533.901 L2135.03,503.979 L2125.03,493.979 L1941.96,493.979 A5,5 0 0 0 1936.96,498.979" style="stroke:#E0B400;stroke-width:1;" fill="#FFFBE6"/><path d="M2125.03,493.979 L2125.03,501.479 A2.5,2.5 0 0 0 2127.53,503.979 L2135.03,503.979 L2125.03,493.979" style="stroke:#E0B400;stroke-width:1;" fill="#FFFBE6"/><text x="1942.96" y="508.262" fill="#5C4A00" font-size="10" textLength="177.07" font-family="'Segoe UI'">exchange 模式经 outbound/inbound</text><text x="1942.96" y="519.902" fill="#5C4A00" font-size="10" textLength="114.736" font-family="'Segoe UI'">单向信箱 + 同步命令摆渡</text><text x="1942.96" y="531.543" fill="#5C4A00" font-size="10" textLength="108.169" font-family="'Segoe UI'">sent/ 留痕避免二次上行</text></g><!--link iface to shared--><g class="link" data-entity-1="ent0001" data-entity-2="ent0005" id="lnk21" data-source-line="54" data-link-type="dependency"><path d="M1012.374,203.77 C1011.115,203.757 1009.856,203.743 1008.596,203.73 C1006.076,203.703 1003.553,203.676 1001.03,203.649 C990.934,203.541 980.811,203.433 970.693,203.332 C808.795,201.707 648,201.644 618,227.519 C569.315,269.509 554.263,339.912 551.529,400.587 C551.187,408.171 551.038,415.604 551.039,422.81 C551.04,424.611 551.05,426.398 551.068,428.17 C551.078,429.056 551.012,424.939 551.025,425.817" style="stroke:#5A5A5A;stroke-width:1;" fill="none" id="iface-to-shared"/><polygon points="551.103,430.817,554.963,421.756,551.025,425.817,546.964,421.88,551.103,430.817" fill="#5A5A5A" style="stroke:#5A5A5A;stroke-width:1;stroke-linejoin:miter;stroke-miterlimit:10;"/><text x="619" y="318.71" fill="#7A93BE" font-size="11" textLength="22" font-family="'Segoe UI'">实现</text></g><!--link iface to ex--><g class="link" data-entity-1="ent0001" data-entity-2="ent0011" id="lnk22" data-source-line="55" data-link-type="dependency"><path d="M1358.163,158.107 C1358.471,158.094 1358.787,158.081 1359.111,158.068 C1364.299,157.865 1371.515,157.686 1380.279,157.736 C1397.807,157.836 1421.524,158.852 1447.574,162.419 C1499.673,169.554 1561.1,186.894 1601,227.519 C1646.31,273.654 1663.248,344.122 1668.766,403.794 C1669.456,411.253 1669.968,418.544 1670.334,425.597 C1670.425,427.36 1670.295,424.113 1670.368,425.846" style="stroke:#5A5A5A;stroke-width:1;" fill="none" id="iface-to-ex"/><polygon points="1670.582,430.841,1674.194,421.679,1670.368,425.846,1666.202,422.02,1670.582,430.841" fill="#5A5A5A" style="stroke:#5A5A5A;stroke-width:1;stroke-linejoin:miter;stroke-miterlimit:10;"/><text x="1667" y="318.71" fill="#7A93BE" font-size="11" textLength="22" font-family="'Segoe UI'">实现</text></g><!--reverse link biz to shared--><g class="link" data-entity-1="ent0017" data-entity-2="ent0005" id="lnk24" data-source-line="56" data-link-type="dependency"><path d="M628.809,422.96 C625.843,424.951 626.02,425.088 623.208,427.341 C617.584,431.848 612.274,436.825 607.301,442.05 C597.355,452.502 588.756,463.949 581.684,474.628 C578.148,479.968 574.994,485.116 572.244,489.851 C570.869,492.218 569.595,494.483 568.425,496.617 C568.133,497.15 567.847,497.676 567.567,498.192 C567.428,498.451 567.289,498.707 567.153,498.961 C567.119,499.024 567.085,499.088 567.051,499.151" style="stroke:#5A5A5A;stroke-width:1;" fill="none" id="biz-backto-shared"/><polygon points="632.993,420.221,623.272,421.804,628.809,422.96,627.654,428.497,632.993,420.221" fill="#5A5A5A" style="stroke:#5A5A5A;stroke-width:1;stroke-linejoin:miter;stroke-miterlimit:10;"/><text x="921" y="404.66" fill="#7A93BE" font-size="11" textLength="98.999" font-family="'Segoe UI'">被调用（协议无关）</text></g><!--reverse link biz to ex--><g class="link" data-entity-1="ent0017" data-entity-2="ent0011" id="lnk26" data-source-line="57" data-link-type="dependency"><path d="M963.917,332.166 C964.174,332.536 961.976,329.351 962.244,329.733 C963.318,331.258 964.477,332.868 965.717,334.545 C968.197,337.898 971.003,341.515 974.099,345.243 C986.483,360.154 1003.515,376.834 1023,385.449 C1030.96,388.969 1642.43,409.739 1649,415.449 C1653.201,419.101 1656.656,423.367 1659.485,428.042 C1659.839,428.627 1660.182,429.218 1660.517,429.814 C1660.684,430.113 1660.849,430.413 1661.011,430.714 C1661.092,430.865 1661.173,431.016 1661.253,431.167" style="stroke:#5A5A5A;stroke-width:1;" fill="none" id="biz-backto-ex"/><polygon points="961.073,328.054,962.902,337.731,963.917,332.166,969.482,333.181,961.073,328.054" fill="#5A5A5A" style="stroke:#5A5A5A;stroke-width:1;stroke-linejoin:miter;stroke-miterlimit:10;"/><text x="1513" y="404.66" fill="#7A93BE" font-size="11" textLength="98.999" font-family="'Segoe UI'">被调用（协议无关）</text></g><!--link iface to GMN27--><g class="link" data-entity-1="ent0001" data-entity-2="ent0028" id="lnk29" data-source-line="60" data-link-type="association"><path d="M1358.084,167.973 C1358.282,168.204 1358.483,168.439 1358.688,168.677 C1360.324,170.583 1362.159,172.722 1364.168,175.062 C1372.202,184.423 1383.001,197.005 1394.828,210.783 C1418.48,238.339 1446.24,270.679 1464.2,291.599" style="stroke:#5A5A5A;stroke-width:1;stroke-dasharray:7,7;" fill="none" id="iface-GMN27"/></g><!--link shared to GMN30--><g class="link" data-entity-1="ent0005" data-entity-2="ent0031" id="lnk32" data-source-line="66" data-link-type="association"><path d="M567.117,498.504 C567.261,498.214 567.406,497.922 567.554,497.627 C572.265,488.192 578.882,476.122 587.296,463.597 C604.125,438.547 628.145,411.679 658.5,400.449 C711.02,381.019 1613.94,381.139 1666.5,400.449 C1720.79,420.399 1768.25,472.589 1790.14,499.639" style="stroke:#5A5A5A;stroke-width:1;stroke-dasharray:7,7;" fill="none" id="shared-GMN30"/></g><!--link ex to GMN33--><g class="link" data-entity-1="ent0011" data-entity-2="ent0034" id="lnk35" data-source-line="71" data-link-type="association"><path d="M1674.514,431.218 C1674.81,430.487 1675.116,429.762 1675.431,429.045 C1676.062,427.609 1676.732,426.202 1677.443,424.826 C1683.131,413.826 1691.452,404.907 1703.5,400.449 C1744.98,385.109 1861.02,385.109 1902.5,400.449 C1952.32,418.879 1995.77,465.369 2018.71,493.579" style="stroke:#5A5A5A;stroke-width:1;stroke-dasharray:7,7;" fill="none" id="ex-GMN33"/></g><?plantuml-src fPNVJnj74CVV_LTiuQ6W2emn909H931sqeTKQKdL5wJeVBUshxRttBsre6aZaKGWIW63P4CJHmJJ8g6auOTe2S4G_XdldVt4lz2vs_Fv-75GgVRJpSvtPkvpEpEViHJEOfJBI2e9w6cLv2GgPL5SajD9gkM94j4o6aNjCVldyT1Jag9DgYI94b96nvuJHqO9fYZKupbGS4BAPrXC8-nh2PAsZUEaXj5tNxLvd4OerIQTfFqZrl_oeQLt7CBsxpg7SVK9Hg6GjomiCuaaCnZz741ezCeBteqDn2BMYKOLJ1thtP61y6ZKjJvAgNAQO5r78R1v2Wd5UWUW464JkNi3JptPYSRy4iTYez4xbnD7UqRxUdek9kcFz8suDf6a1v84cChWhHg_l-5pQyPsXPyKpFUhPcdBc3-jxrVEJrx1jw9OGK64f-GKCC28pyqQnLsZU6YKodnk3tsJntdyG5FmEACImycV0e4MhxOhfnEaWoyMwZixnje6dpambhPuuO_E2VAZvHZK7QzkfhSXIKTgGf8nQX-BH0TYepO4JsoLg6nCfNe7o3EgpXv9Ujf-e5XIh8UEJZj8DkHUmWlwIQeo_2tMuM9PAlin8X4PPp9OQTdb59RJhhqPi_U6cFUnH5aSIxOyAOjGTcLIWbdVYUZvR2jKs0trz0AxSPkzJR15p-RqE0j4lnJVnW-Ty-NQnyPYuMZVPNQDpLbUM3MEbmTH3XC5cZ4eL3wiU7cTpxuSHBAMpMKmmyel2Ka578xAXuQLud0EL4rwmI5L6HQIi8_ax4Nzmy4WCZO-ebIJO_SFkaQ4hEzwsRs8RstzFdYZpets1zoyytw8yTH_mAlbMTpgML4DleMlIeGpjU_COnSNleMmcqMWjeNTMOccCHNwMt0tyrw37D-0l2aJZdwaQqUl-7p5-EVP1Cd2iW1yC50OD6WNpHEOzSAGql8wJcESWylO91nNdzWnmsDtBYEk7LNvfxVcqYwmhbMha40eV03dg2R3zBN60dBh4OhUcz10OVSYYAzi6w_V2FSBxVev4WEJxwoRItimqCo3Qa1ChIvOSgHhkDc8WsX8jeRneBCPXeLaA6XRXo-9u6hT9d3YTkLpu6-1kYAeRxwhxxqmYzld9tFUeNj-ygiR1HBzpmW1Uq75DSQqBD8IOcO3IXd6CBlONHsjvke4Z_fPqRhtkn_vST75MFlq6nmPgtjySzsxc7ZXRUFrD9_V49xcVXLzWVY7BRxql7OqNQyi162EsSlIgOYgoHIp2XAW8AX3JCHhb0_vyeBnVekVJ3UAqt3y8F8GhiOI-bwpsWQPvRzXEzLtgz2Ou0b9-Cn-xVYTMTxXfoNVR7WAGhdRqbcgrKAhGvsU0I--MEBBAxMpYhcpRxsCA6Vbj5RzqrYPDOugLisOi20oIo_DjLBZsHcVMQmTBnX_LMf7yzvt_XS0?></g></svg>