<svg xmlns="http://www.w3.org/2000/svg" xmlns:xlink="http://www.w3.org/1999/xlink" version="1.1" data-diagram-type="SEQUENCE" style="width:1048px;height:1312px;background:#FFFFFF;" width="1048px" height="1312px" viewBox="0 0 1048 1312" zoomAndPan="magnify" preserveAspectRatio="none" contentStyleType="text/css"><?plantuml 1.2026.7beta11?><defs/><g font-family="sans-serif" lengthAdjust="spacing"><g class="title" data-source-line="18"><text x="223.057" y="35.421" fill="#000" font-size="22" textLength="600.736" font-weight="700" font-family="'Segoe UI'">submit_ssh_task 阻塞同步执行时序（exchange 模式）</text></g><rect x="35.462" y="716.367" width="555.178" height="189.617" fill="#FFF" style="stroke:#FFF;stroke-width:1;"/><rect x="35.462" y="716.367" width="555.178" height="189.617" fill="none" style="stroke:#7A93BE;stroke-width:1;"/><g><title>Claude</title><rect x="47.962" y="110.203" width="8" height="1137.227" fill="#000" fill-opacity="0"/><line x1="51.462" y1="110.203" x2="51.462" y2="1247.43" style="stroke:#7A93BE;stroke-width:1;stroke-dasharray:5,5;"/></g><g><title>MCP Server</title><rect x="313.948" y="110.203" width="8" height="1137.227" fill="#000" fill-opacity="0"/><line x1="317.448" y1="110.203" x2="317.448" y2="1247.43" style="stroke:#7A93BE;stroke-width:1;stroke-dasharray:5,5;"/></g><g><title>.......</title><rect x="571.14" y="110.203" width="8" height="1137.227" fill="#000" fill-opacity="0"/><line x1="574.64" y1="110.203" x2="574.64" y2="1247.43" style="stroke:#7A93BE;stroke-width:1;stroke-dasharray:5,5;"/></g><g><title>Worker</title><rect x="799.346" y="110.203" width="8" height="1137.227" fill="#000" fill-opacity="0"/><line x1="802.846" y1="110.203" x2="802.846" y2="1247.43" style="stroke:#7A93BE;stroke-width:1;stroke-dasharray:5,5;"/></g><rect x="20" y="61.609" width="62.924" height="42.594" fill="#DCE9FB" style="stroke:#7A93BE;stroke-width:1;" rx="2.5" ry="2.5"/><text x="27.153" y="79.604" fill="#1F2933" font-size="14" textLength="48.617" font-family="'Segoe UI'">Claude</text><text x="25" y="95.901" fill="#1F2933" font-size="14" textLength="52.924" font-family="'Segoe UI'">(调用方)</text><rect x="272.12" y="61.609" width="90.657" height="42.594" fill="#DCE9FB" style="stroke:#7A93BE;stroke-width:1;" rx="2.5" ry="2.5"/><text x="277.12" y="79.604" fill="#1F2933" font-size="14" textLength="80.657" font-family="'Segoe UI'">MCP Server</text><text x="297.986" y="95.901" fill="#1F2933" font-size="14" textLength="38.924" font-family="'Segoe UI'">(内网)</text><rect x="520.64" y="61.609" width="108" height="42.594" fill="#DCE9FB" style="stroke:#7A93BE;stroke-width:1;" rx="2.5" ry="2.5"/><text x="525.64" y="79.604" fill="#1F2933" font-size="14" textLength="98" font-family="'Segoe UI'">文件交换服务器</text><text x="541.178" y="95.901" fill="#1F2933" font-size="14" textLength="66.924" font-family="'Segoe UI'">(单向信箱)</text><rect x="764.384" y="61.609" width="76.924" height="42.594" fill="#DCE9FB" style="stroke:#7A93BE;stroke-width:1;" rx="2.5" ry="2.5"/><text x="777.525" y="79.604" fill="#1F2933" font-size="14" textLength="50.641" font-family="'Segoe UI'">Worker</text><text x="769.384" y="95.901" fill="#1F2933" font-size="14" textLength="66.924" font-family="'Segoe UI'">(外网挂载)</text><rect x="20" y="1252.43" width="62.924" height="42.594" fill="#DCE9FB" style="stroke:#7A93BE;stroke-width:1;" rx="2.5" ry="2.5"/><text x="27.153" y="1270.425" fill="#1F2933" font-size="14" textLength="48.617" font-family="'Segoe UI'">Claude</text><text x="25" y="1286.722" fill="#1F2933" font-size="14" textLength="52.924" font-family="'Segoe UI'">(调用方)</text><rect x="272.12" y="1252.43" width="90.657" height="42.594" fill="#DCE9FB" style="stroke:#7A93BE;stroke-width:1;" rx="2.5" ry="2.5"/><text x="277.12" y="1270.425" fill="#1F2933" font-size="14" textLength="80.657" font-family="'Segoe UI'">MCP Server</text><text x="297.986" y="1286.722" fill="#1F2933" font-size="14" textLength="38.924" font-family="'Segoe UI'">(内网)</text><rect x="520.64" y="1252.43" width="108" height="42.594" fill="#DCE9FB" style="stroke:#7A93BE;stroke-width:1;" rx="2.5" ry="2.5"/><text x="525.64" y="1270.425" fill="#1F2933" font-size="14" textLength="98" font-family="'Segoe UI'">文件交换服务器</text><text x="541.178" y="1286.722" fill="#1F2933" font-size="14" textLength="66.924" font-family="'Segoe UI'">(单向信箱)</text><rect x="764.384" y="1252.43" width="76.924" height="42.594" fill="#DCE9FB" style="stroke:#7A93BE;stroke-width:1;" rx="2.5" ry="2.5"/><text x="777.525" y="1270.425" fill="#1F2933" font-size="14" textLength="50.641" font-family="'Segoe UI'">Worker</text><text x="769.384" y="1286.722" fill="#1F2933" font-size="14" textLength="66.924" font-family="'Segoe UI'">(外网挂载)</text><rect x="10" y="138.77" width="1027.85" height="3" fill="#FFF" style="stroke:#FFF;stroke-width:1;"/><line x1="10" y1="138.77" x2="1037.85" y2="138.77" style="stroke:#000;stroke-width:0.5;"/><line x1="10" y1="141.77" x2="1037.85" y2="141.77" style="stroke:#000;stroke-width:0.5;"/><rect x="436.662" y="128.203" width="174.526" height="23.133" fill="#FFF" style="stroke:#000;stroke-width:1;"/><text x="442.662" y="144.27" fill="#000" font-size="13" textLength="156" font-weight="700" font-family="'Segoe UI'">阶段一：提交任务（阻塞）</text><polygon points="305.448,177.305,315.448,181.305,305.448,185.305,309.448,181.305" fill="#5A5A5A" style="stroke:#5A5A5A;stroke-width:1;stroke-linejoin:miter;stroke-miterlimit:10;"/><line x1="51.462" y1="181.305" x2="311.448" y2="181.305" style="stroke:#5A5A5A;stroke-width:1;"/><text x="58.462" y="176.475" fill="#333" font-size="12" textLength="133.84" font-family="'Segoe UI'">submit_ssh_task(cmd)</text><polygon points="562.64,205.273,572.64,209.273,562.64,213.273,566.64,209.273" fill="#5A5A5A" style="stroke:#5A5A5A;stroke-width:1;stroke-linejoin:miter;stroke-miterlimit:10;"/><line x1="317.448" y1="209.273" x2="568.64" y2="209.273" style="stroke:#5A5A5A;stroke-width:1;"/><text x="324.448" y="204.443" fill="#333" font-size="12" textLength="205.413" font-family="'Segoe UI'">syncPull（-g 整目录拉回 inbound/）</text><polygon points="328.448,233.242,318.448,237.242,328.448,241.242,324.448,237.242" fill="#5A5A5A" style="stroke:#5A5A5A;stroke-width:1;stroke-linejoin:miter;stroke-miterlimit:10;"/><line x1="322.448" y1="237.242" x2="573.64" y2="237.242" style="stroke:#5A5A5A;stroke-width:1;stroke-dasharray:2,2;"/><text x="334.448" y="232.412" fill="#333" font-size="12" textLength="139.202" font-family="'Segoe UI'">返回心跳 heartbeat.json</text><line x1="317.448" y1="279.18" x2="359.448" y2="279.18" style="stroke:#5A5A5A;stroke-width:1;"/><line x1="359.448" y1="279.18" x2="359.448" y2="292.18" style="stroke:#5A5A5A;stroke-width:1;"/><line x1="318.448" y1="292.18" x2="359.448" y2="292.18" style="stroke:#5A5A5A;stroke-width:1;"/><polygon points="328.448,288.18,318.448,292.18,328.448,296.18,324.448,292.18" fill="#5A5A5A" style="stroke:#5A5A5A;stroke-width:1;stroke-linejoin:miter;stroke-miterlimit:10;"/><text x="324.448" y="260.381" fill="#333" font-size="12" textLength="72.001" font-family="'Segoe UI'">心跳判定放宽</text><text x="324.448" y="274.35" fill="#333" font-size="12" textLength="216.938" font-family="'Segoe UI'">（心跳存在 &amp;&amp; shutdown_at==null）</text><line x1="317.448" y1="334.117" x2="359.448" y2="334.117" style="stroke:#5A5A5A;stroke-width:1;"/><line x1="359.448" y1="334.117" x2="359.448" y2="347.117" style="stroke:#5A5A5A;stroke-width:1;"/><line x1="318.448" y1="347.117" x2="359.448" y2="347.117" style="stroke:#5A5A5A;stroke-width:1;"/><polygon points="328.448,343.117,318.448,347.117,328.448,351.117,324.448,347.117" fill="#5A5A5A" style="stroke:#5A5A5A;stroke-width:1;stroke-linejoin:miter;stroke-miterlimit:10;"/><text x="324.448" y="315.318" fill="#333" font-size="12" textLength="48" font-family="'Segoe UI'">幂等检查</text><text x="324.448" y="329.287" fill="#333" font-size="12" textLength="201.341" font-family="'Segoe UI'">（outbound/+sent/ 已存在则拒绝）</text><line x1="317.448" y1="389.055" x2="359.448" y2="389.055" style="stroke:#5A5A5A;stroke-width:1;"/><line x1="359.448" y1="389.055" x2="359.448" y2="402.055" style="stroke:#5A5A5A;stroke-width:1;"/><line x1="318.448" y1="402.055" x2="359.448" y2="402.055" style="stroke:#5A5A5A;stroke-width:1;"/><polygon points="328.448,398.055,318.448,402.055,328.448,406.055,324.448,402.055" fill="#5A5A5A" style="stroke:#5A5A5A;stroke-width:1;stroke-linejoin:miter;stroke-miterlimit:10;"/><text x="324.448" y="370.256" fill="#333" font-size="12" textLength="184.706" font-family="'Segoe UI'">原子写本地 outbound/&lt;id>.json</text><text x="324.448" y="384.225" fill="#333" font-size="12" textLength="115.858" font-family="'Segoe UI'">（.tmp → rename）</text><polygon points="562.64,439.992,572.64,443.992,562.64,447.992,566.64,443.992" fill="#5A5A5A" style="stroke:#5A5A5A;stroke-width:1;stroke-linejoin:miter;stroke-miterlimit:10;"/><line x1="317.448" y1="443.992" x2="568.64" y2="443.992" style="stroke:#5A5A5A;stroke-width:1;"/><text x="324.448" y="425.193" fill="#333" font-size="12" textLength="119.449" font-family="'Segoe UI'">syncPush 单文件 -pd</text><text x="324.448" y="439.162" fill="#333" font-size="12" textLength="233.192" font-family="'Segoe UI'">（{src}=task 文件, {dst}=outbound/）</text><line x1="317.448" y1="471.961" x2="359.448" y2="471.961" style="stroke:#5A5A5A;stroke-width:1;"/><line x1="359.448" y1="471.961" x2="359.448" y2="484.961" style="stroke:#5A5A5A;stroke-width:1;"/><line x1="318.448" y1="484.961" x2="359.448" y2="484.961" style="stroke:#5A5A5A;stroke-width:1;"/><polygon points="328.448,480.961,318.448,484.961,328.448,488.961,324.448,484.961" fill="#5A5A5A" style="stroke:#5A5A5A;stroke-width:1;stroke-linejoin:miter;stroke-miterlimit:10;"/><text x="324.448" y="467.131" fill="#333" font-size="12" textLength="154.512" font-family="'Segoe UI'">push 成功后移入 sent/ 留痕</text><path d="M213.092,497.961 L213.092,552.961 L421.092,552.961 L421.092,507.961 L411.092,497.961 L213.092,497.961" style="stroke:#E0B400;stroke-width:1;" fill="#FFFBE6"/><path d="M411.092,497.961 L411.092,507.961 L421.092,507.961 L411.092,497.961" style="stroke:#E0B400;stroke-width:1;" fill="#FFFBE6"/><text x="219.092" y="515.028" fill="#5C4A00" font-size="13" textLength="91" font-family="'Segoe UI'">模板命令渲染：</text><text x="219.092" y="530.161" fill="#5C4A00" font-size="13" textLength="183.701" font-family="'Segoe UI'">file_transfer -pd {src} {dst}</text><text x="219.092" y="545.293" fill="#5C4A00" font-size="13" textLength="187.713" font-family="'Segoe UI'">spawn + 超时 + 退避重试 3 次</text><rect x="10" y="578.926" width="1027.85" height="3" fill="#FFF" style="stroke:#FFF;stroke-width:1;"/><line x1="10" y1="578.926" x2="1037.85" y2="578.926" style="stroke:#000;stroke-width:0.5;"/><line x1="10" y1="581.926" x2="1037.85" y2="581.926" style="stroke:#000;stroke-width:0.5;"/><rect x="449.662" y="568.359" width="148.526" height="23.133" fill="#FFF" style="stroke:#000;stroke-width:1;"/><text x="455.662" y="584.426" fill="#000" font-size="13" textLength="130" font-weight="700" font-family="'Segoe UI'">阶段二：阻塞轮询结果</text><polygon points="562.64,617.461,572.64,621.461,562.64,625.461,566.64,621.461" fill="#5A5A5A" style="stroke:#5A5A5A;stroke-width:1;stroke-linejoin:miter;stroke-miterlimit:10;"/><line x1="317.448" y1="621.461" x2="568.64" y2="621.461" style="stroke:#5A5A5A;stroke-width:1;"/><text x="324.448" y="616.631" fill="#333" font-size="12" textLength="205.413" font-family="'Segoe UI'">syncPull（-g 整目录拉回 inbound/）</text><polygon points="328.448,645.43,318.448,649.43,328.448,653.43,324.448,649.43" fill="#5A5A5A" style="stroke:#5A5A5A;stroke-width:1;stroke-linejoin:miter;stroke-miterlimit:10;"/><line x1="322.448" y1="649.43" x2="573.64" y2="649.43" style="stroke:#5A5A5A;stroke-width:1;stroke-dasharray:2,2;"/><text x="334.448" y="644.6" fill="#333" font-size="12" textLength="72.001" font-family="'Segoe UI'">返回结果快照</text><line x1="317.448" y1="691.367" x2="359.448" y2="691.367" style="stroke:#5A5A5A;stroke-width:1;"/><line x1="359.448" y1="691.367" x2="359.448" y2="704.367" style="stroke:#5A5A5A;stroke-width:1;"/><line x1="318.448" y1="704.367" x2="359.448" y2="704.367" style="stroke:#5A5A5A;stroke-width:1;"/><polygon points="328.448,700.367,318.448,704.367,328.448,708.367,324.448,704.367" fill="#5A5A5A" style="stroke:#5A5A5A;stroke-width:1;stroke-linejoin:miter;stroke-miterlimit:10;"/><text x="324.448" y="672.568" fill="#333" font-size="12" textLength="192.205" font-family="'Segoe UI'">查本地 inbound/result_&lt;id>.json</text><text x="324.448" y="686.537" fill="#333" font-size="12" textLength="177.481" font-family="'Segoe UI'">（过滤 .tmp，按 task_id 匹配）</text><path d="M35.462,716.367 L99.905,716.367 L99.905,723.5 L89.905,733.5 L35.462,733.5 L35.462,716.367" style="stroke:#7A93BE;stroke-width:1;" fill="#F7F9FC"/><rect x="35.462" y="716.367" width="555.178" height="189.617" fill="none" style="stroke:#7A93BE;stroke-width:1;"/><text x="50.462" y="729.434" fill="#000" font-size="13" textLength="19.443" font-weight="700" font-family="'Segoe UI'">alt</text><text x="114.905" y="728.578" fill="#000" font-size="11" textLength="54.054" font-weight="700" font-family="'Segoe UI'">[找到结果]</text><polygon points="62.462,759.469,52.462,763.469,62.462,767.469,58.462,763.469" fill="#5A5A5A" style="stroke:#5A5A5A;stroke-width:1;stroke-linejoin:miter;stroke-miterlimit:10;"/><line x1="56.462" y1="763.469" x2="316.448" y2="763.469" style="stroke:#5A5A5A;stroke-width:1;stroke-dasharray:2,2;"/><text x="68.462" y="758.639" fill="#333" font-size="12" textLength="241.987" font-family="'Segoe UI'">返回 { status, exit_code, stdout, stderr }</text><line x1="35.462" y1="772.469" x2="590.64" y2="772.469" style="stroke:#7A93BE;stroke-width:1;stroke-dasharray:2,2;"/><text x="40.462" y="784.679" fill="#000" font-size="11" textLength="87.054" font-weight="700" font-family="'Segoe UI'">[未找到且未超时]</text><line x1="317.448" y1="810.242" x2="359.448" y2="810.242" style="stroke:#5A5A5A;stroke-width:1;"/><line x1="359.448" y1="810.242" x2="359.448" y2="823.242" style="stroke:#5A5A5A;stroke-width:1;"/><line x1="318.448" y1="823.242" x2="359.448" y2="823.242" style="stroke:#5A5A5A;stroke-width:1;"/><polygon points="328.448,819.242,318.448,823.242,328.448,827.242,324.448,823.242" fill="#5A5A5A" style="stroke:#5A5A5A;stroke-width:1;stroke-linejoin:miter;stroke-miterlimit:10;"/><text x="324.448" y="805.412" fill="#333" font-size="12" textLength="95.784" font-family="'Segoe UI'">sleep 后继续轮询</text><line x1="35.462" y1="832.242" x2="590.64" y2="832.242" style="stroke:#7A93BE;stroke-width:1;stroke-dasharray:2,2;"/><text x="40.462" y="844.453" fill="#000" font-size="11" textLength="194.825" font-weight="700" font-family="'Segoe UI'">[超过 max_wait_ms（建议 120s）]</text><polygon points="562.64,866.016,572.64,870.016,562.64,874.016,566.64,870.016" fill="#5A5A5A" style="stroke:#5A5A5A;stroke-width:1;stroke-linejoin:miter;stroke-miterlimit:10;"/><line x1="317.448" y1="870.016" x2="568.64" y2="870.016" style="stroke:#5A5A5A;stroke-width:1;"/><text x="324.448" y="865.186" fill="#333" font-size="12" textLength="212.742" font-family="'Segoe UI'">写 cancel_&lt;id>.marker + syncPush</text><polygon points="62.462,893.984,52.462,897.984,62.462,901.984,58.462,897.984" fill="#5A5A5A" style="stroke:#5A5A5A;stroke-width:1;stroke-linejoin:miter;stroke-miterlimit:10;"/><line x1="56.462" y1="897.984" x2="316.448" y2="897.984" style="stroke:#5A5A5A;stroke-width:1;stroke-dasharray:2,2;"/><text x="68.462" y="893.154" fill="#333" font-size="12" textLength="207.598" font-family="'Segoe UI'">只返回 timeout（不误标 cancelled）</text><rect x="10" y="940.551" width="1027.85" height="3" fill="#FFF" style="stroke:#FFF;stroke-width:1;"/><line x1="10" y1="940.551" x2="1037.85" y2="940.551" style="stroke:#000;stroke-width:0.5;"/><line x1="10" y1="943.551" x2="1037.85" y2="943.551" style="stroke:#000;stroke-width:0.5;"/><rect x="414.121" y="929.984" width="219.607" height="23.133" fill="#FFF" style="stroke:#000;stroke-width:1;"/><text x="420.121" y="946.051" fill="#000" font-size="13" textLength="201.081" font-weight="700" font-family="'Segoe UI'">阶段三：Worker 侧执行（并行）</text><polygon points="790.846,993.055,800.846,997.055,790.846,1001.055,794.846,997.055" fill="#5A5A5A" style="stroke:#5A5A5A;stroke-width:1;stroke-linejoin:miter;stroke-miterlimit:10;"/><line x1="574.64" y1="997.055" x2="796.846" y2="997.055" style="stroke:#5A5A5A;stroke-width:1;stroke-dasharray:2,2;"/><text x="581.64" y="978.256" fill="#333" font-size="12" textLength="160.705" font-family="'Segoe UI'">轮询到 outbound/&lt;id>.json</text><text x="581.64" y="992.225" fill="#333" font-size="12" textLength="132.001" font-family="'Segoe UI'">（服务器天然同步可见）</text><line x1="802.846" y1="1025.023" x2="844.846" y2="1025.023" style="stroke:#5A5A5A;stroke-width:1;"/><line x1="844.846" y1="1025.023" x2="844.846" y2="1038.023" style="stroke:#5A5A5A;stroke-width:1;"/><line x1="803.846" y1="1038.023" x2="844.846" y2="1038.023" style="stroke:#5A5A5A;stroke-width:1;"/><polygon points="813.846,1034.023,803.846,1038.023,813.846,1042.023,809.846,1038.023" fill="#5A5A5A" style="stroke:#5A5A5A;stroke-width:1;stroke-linejoin:miter;stroke-miterlimit:10;"/><text x="809.846" y="1020.193" fill="#333" font-size="12" textLength="221.004" font-family="'Segoe UI'">acquireLock 抢锁（processing/ 去重）</text><line x1="802.846" y1="1065.992" x2="844.846" y2="1065.992" style="stroke:#5A5A5A;stroke-width:1;"/><line x1="844.846" y1="1065.992" x2="844.846" y2="1078.992" style="stroke:#5A5A5A;stroke-width:1;"/><line x1="803.846" y1="1078.992" x2="844.846" y2="1078.992" style="stroke:#5A5A5A;stroke-width:1;"/><polygon points="813.846,1074.992,803.846,1078.992,813.846,1082.992,809.846,1078.992" fill="#5A5A5A" style="stroke:#5A5A5A;stroke-width:1;stroke-linejoin:miter;stroke-miterlimit:10;"/><text x="809.846" y="1061.162" fill="#333" font-size="12" textLength="154.378" font-family="'Segoe UI'">策略校验 → SSH/mock 执行</text><polygon points="585.64,1116.93,575.64,1120.93,585.64,1124.93,581.64,1120.93" fill="#5A5A5A" style="stroke:#5A5A5A;stroke-width:1;stroke-linejoin:miter;stroke-miterlimit:10;"/><line x1="579.64" y1="1120.93" x2="801.846" y2="1120.93" style="stroke:#5A5A5A;stroke-width:1;"/><text x="591.64" y="1102.131" fill="#333" font-size="12" textLength="204.205" font-family="'Segoe UI'">结果回写 inbound/result_&lt;id>.json</text><text x="591.64" y="1116.1" fill="#333" font-size="12" textLength="165.686" font-family="'Segoe UI'">大输出 inbound/&lt;id>.stdout</text><polygon points="585.64,1144.898,575.64,1148.898,585.64,1152.898,581.64,1148.898" fill="#5A5A5A" style="stroke:#5A5A5A;stroke-width:1;stroke-linejoin:miter;stroke-miterlimit:10;"/><line x1="579.64" y1="1148.898" x2="801.846" y2="1148.898" style="stroke:#5A5A5A;stroke-width:1;"/><text x="591.64" y="1144.068" fill="#333" font-size="12" textLength="191.971" font-family="'Segoe UI'">心跳双写 inbound/heartbeat.json</text><path d="M681.008,1161.898 L681.008,1231.898 L924.008,1231.898 L924.008,1171.898 L914.008,1161.898 L681.008,1161.898" style="stroke:#E0B400;stroke-width:1;" fill="#FFFBE6"/><path d="M914.008,1161.898 L914.008,1171.898 L924.008,1171.898 L914.008,1161.898" style="stroke:#E0B400;stroke-width:1;" fill="#FFFBE6"/><text x="687.008" y="1178.965" fill="#5C4A00" font-size="13" textLength="222.676" font-family="'Segoe UI'">Worker queue_mode=exchange：</text><text x="687.008" y="1194.098" fill="#5C4A00" font-size="13" textLength="126.871" font-family="'Segoe UI'">扫 outbound/ 领任务</text><text x="687.008" y="1209.231" fill="#5C4A00" font-size="13" textLength="113.299" font-family="'Segoe UI'">结果回写 inbound/</text><text x="687.008" y="1224.364" fill="#5C4A00" font-size="13" textLength="188.583" font-family="'Segoe UI'">GC 扫 inbound/（心跳不参与）</text><?plantuml-src hLLRJnjN47xVNp6bKfGe8P1R8wew4hWuhHGY95Jn4iawU0-mPRthxAuBBK8Yf5nCp2K1av0GYAcHAGc6fYq15kF_KlcSNJ_bBtHspm8sXRGFjMLvjJFpdM_ccvdpcTLBunGIAb4qoUnJj0GnI1owIAolnz2JcXpMLTs0poF-fyh3x2MotgzeFT1DL9DMMMJQJPAg5T4rwpv1xBeEsgDJ-ExRkYgdPiFG-mFiMytUzxJHYmySRlYVinmwb9yeNBjUPUgW3vDKYz5sObXAJ4aGpMhH3PaQ0TRjvgORBQt_4d0w-w_3hKsHbay7LV6z5hdULCFtoFsUqeq_ZVutHdUHGk8VN2At8qsHyBdkdqI-hrkqvGnfMrg_EErLZTFQs7ApiV6KHrM-jy8tcz4kMOgbKZ2JNN75YffcRzGYPXzKNjWikyncqtnpZQVoRZRDd--m_PcF1nDq8DPBj1uAV3tB3l1DIf8I9oM5kh1AaZ9ze5rqjnyxy-jyOUzI7H0JmhLkRU5sB8Fn0pNGbOsDEiMdmg-jreylZ9VjdV9-Za-jygKfDfbbY-jUo5I6pJujbx9EuJSH6AaDxDIDFW6UMq1mdXvnYqNXsIb9eH0ckSCBVvPtXpyUlEGpitX4sROH7vCK-MDk40f9KXZgxq0RV7cwJ1TZSVcIrEPP8vxrHotMdbHLZA_l0PxvmtbLOCKCVv9YhvP1qRey0HkyWaMWFa1qI_DePAN7xeVVePSY_ovAhAlVcxecW3qdOMOJELPuoUSFMQ7uGCD3WjURBzZIEbouWEETj72-jIYnGY7D9vAg0jaRSJPJ_9TXlhBcX-j9Ip2wR5BDQW3suRt0OXEB_CapntvT6p-zmZPdsTWYNth7bhRXEFmhHRxZ4_PHhrhn1FmrzWmCgk4cEOOuAP3P2wYTa1Ng4x8VDcWQiQ6Gttl2SWK6PTCQ2XqVKqCcuQ7mYLaskS9cfvsypKRNGAJXP1QTvnb9qh3VGSVsmeO2hrdvwn9xMYpRERxxdg_CeUZulbjHQTGoY6PseoUo0P-9E1pjPeBqQt0Pt9rHd01yg0mFLnwLAkDJxbO6RW1_bvMe9eDtMdLJxQSHNtIHMoouMwkEFSUNb_ns-XyQHg2nqbjdD7zI5LGs4ESerg0chlLehKHkQPpREV2K-dYGvkaKU7MFAZAmz5vbTCexaAWMyDGXczWMHs4fsdmEuMCEC0YcHQoaUGNe04v5J9Vf5NmbesJ-FpKC698etZJ0bpO4Mdbt7fz5DGLcC5agfGdmjBJpZhqfQYPYqHaPGvmCHFi9dXCtlTwtzzr20Q-HHjEZ6o1vHSKEXHZ1tQgAjEF4MmEet57trQJ2PZQ2R2mbJf4vOfTtKTmj_cOym56fx9s1CjUiZHGgB7OCb0_pOajwpFPs_0UnEeHmdLxH_9Im1ETDpl5oOxbVdPztnF9bCrjk_f5tV2S4G2JsCAaOz9uUmrcPNAtCetaYOUWnQffuj-CWJzlOdpKnpkQ2ardZRxALZRG_dHqTtpJ4VGIVj_3qoXTq5kuahEFvRSHoUVTmZetl7_luHg7-2LgmecRIrMYdrbpLf7QYDa59yNvCqcWSUofqTEE8YUMfjoSLXChgc5ZQQ3cJEhw_6_Q3JkOfs9oeCviPAUzE1-hwG_mt?></g></svg>